<svg xmlns="http://www.w3.org/2000/svg" width="90" height="40" fill="none" viewBox="0 0 90 40"><path fill="#141C29" d="M12.112 28.507c-2.071 0-4.08-.277-6.027-.832-1.922-.58-3.47-1.323-4.643-2.23l2.06-4.613c1.123.832 2.458 1.5 4.005 2.004 1.548.504 3.095.756 4.643.756 1.722 0 2.995-.252 3.819-.756.823-.53 1.235-1.223 1.235-2.08 0-.63-.25-1.146-.749-1.55-.474-.428-1.098-.768-1.872-1.02-.748-.253-1.772-.53-3.07-.832-1.996-.48-3.631-.958-4.904-1.437a8.11 8.11 0 0 1-3.295-2.306c-.898-1.059-1.347-2.47-1.347-4.235 0-1.537.411-2.924 1.235-4.159.824-1.26 2.06-2.255 3.706-2.986 1.673-.731 3.707-1.097 6.103-1.097 1.672 0 3.307.202 4.904.605 1.598.403 2.995.983 4.194 1.74l-1.873 4.65c-2.42-1.387-4.841-2.08-7.263-2.08-1.697 0-2.957.277-3.78.832-.8.554-1.199 1.285-1.199 2.193 0 .907.462 1.588 1.385 2.041.949.429 2.384.857 4.306 1.286 1.996.479 3.631.958 4.904 1.437a7.974 7.974 0 0 1 3.257 2.268c.924 1.033 1.386 2.432 1.386 4.197a7.29 7.29 0 0 1-1.273 4.159c-.824 1.235-2.072 2.218-3.744 2.948-1.672.731-3.707 1.097-6.103 1.097ZM25.997 2.93 31.837 0v28.053h-5.84V2.93ZM45.876 28.356c-2.122 0-4.031-.442-5.729-1.324-1.672-.907-2.982-2.155-3.93-3.743-.95-1.588-1.423-3.39-1.423-5.406 0-2.016.474-3.819 1.422-5.406.949-1.588 2.26-2.823 3.931-3.706 1.698-.907 3.607-1.36 5.729-1.36 2.121 0 4.018.453 5.69 1.36 1.672.883 2.983 2.118 3.931 3.705.949 1.588 1.423 3.39 1.423 5.407 0 2.016-.474 3.819-1.423 5.406-.948 1.588-2.259 2.836-3.93 3.743-1.673.883-3.57 1.324-5.691 1.324Zm0-4.84c1.497 0 2.72-.504 3.669-1.512.973-1.033 1.46-2.407 1.46-4.121 0-1.714-.487-3.075-1.46-4.083-.949-1.034-2.172-1.55-3.67-1.55-1.497 0-2.733.516-3.706 1.55-.973 1.008-1.46 2.369-1.46 4.083s.487 3.088 1.46 4.121c.974 1.008 2.209 1.512 3.707 1.512ZM72.848 27.07c-.574.429-1.285.756-2.134.983-.824.202-1.697.303-2.62.303-2.397 0-4.256-.618-5.579-1.853-1.298-1.235-1.947-3.05-1.947-5.444v-8.356h-3.107V8.166h3.107V4.19l5.84-.976v4.952h5.984v4.537H66.41v8.28c0 .857.212 1.525.636 2.004.45.454 1.073.68 1.872.68.924 0 1.71-.252 2.359-.756l1.572 4.16Z"/><path fill="#141C29" d="M87.712 27.07c-.574.429-1.285.756-2.134.983-.824.202-1.697.303-2.62.303-2.397 0-4.256-.618-5.579-1.853-1.298-1.235-1.947-3.05-1.947-5.444v-8.356h-3.107V8.166h3.107V4.19l5.84-.976v4.952h5.017v4.537h-5.016v8.28c0 .857.212 1.525.636 2.004.45.454 1.073.68 1.872.68.924 0 1.71-.252 2.359-.756l1.572 4.16Z"/><ellipse cx="45.987" cy="34.4" fill="#5600F5" rx="3.867" ry="3.905"/></svg>
