<svg xmlns="http://www.w3.org/2000/svg" height="30" fill="none" viewBox="0 0 228 80"><path fill="#FFF" fill-rule="evenodd" d="M30.55 64.205c1.26 0 2.522-.293 3.783-.585 2.242 5.119 5.465 9.506 9.53 13.162C39.937 78.83 35.313 80 30.548 80 14.154 80 .841 66.545 0 49.726V0h15.135v17.111H31.53v15.796H15.135v15.795c.28 8.629 7.147 15.503 15.414 15.503Zm96.413-15.65c0 4.388-1.402 7.898-4.345 10.97-3.083 3.071-6.446 4.533-10.65 4.533-4.204 0-7.567-1.462-10.51-4.533-2.943-3.072-4.344-6.728-4.344-10.97V17.112H81.839v31.445c0 4.387-1.401 7.897-4.344 10.969-2.943 3.071-6.446 4.533-10.51 4.533s-7.568-1.462-10.51-4.533c-2.943-3.072-4.345-6.728-4.345-10.97V17.112H36.856v31.445c0 8.629 2.942 16.088 8.828 22.23C51.57 76.93 58.717 80 66.984 80c8.269 0 15.416-3.071 21.301-9.214l1.261-1.316 1.262 1.316C96.693 76.93 103.84 80 112.108 80s15.415-3.071 21.301-9.214c5.885-6.142 8.828-13.601 8.828-22.23V17.112h-15.274v31.444Zm101.037 0V80h-15.135V48.556c0-4.388-1.401-7.898-4.344-10.97-2.943-3.07-6.446-4.533-10.51-4.533s-7.567 1.463-10.51 4.534c-2.943 3.071-4.344 6.727-4.344 10.969V80h-15.135V48.556c0-8.63 2.943-16.088 8.829-22.23 5.885-6.143 13.032-9.215 21.3-9.215s15.415 3.072 21.301 9.214c5.605 6.143 8.548 13.602 8.548 22.23Zm-73.01-32.76c4.204 0 7.567-3.51 7.567-7.897 0-4.388-3.363-7.898-7.567-7.898-4.205 0-7.568 3.51-7.568 7.898 0 4.387 3.363 7.897 7.568 7.897Zm-7.568 1.316c4.344 3.95 10.791 3.95 15.135 0v62.743h-15.135V17.112Z" clip-rule="evenodd"/></svg>
