<svg xmlns="http://www.w3.org/2000/svg" version="1.1" xmlns:xlink="http://www.w3.org/1999/xlink" width="1000" height="1000"><metadata><rdf:RDF xmlns:rdf="http://www.w3.org/1999/02/22-rdf-syntax-ns#" xmlns:dc="http://purl.org/dc/elements/1.1/"><rdf:Description><dc:creator>RealFaviconGenerator</dc:creator><dc:source>https://realfavicongenerator.net</dc:source></rdf:Description></rdf:RDF></metadata><style>
    #light-icon {
      display: inline;
    }
    #dark-icon {
      display: none;
    }

    @media (prefers-color-scheme: dark) {
      #light-icon {
        display: none;
      }
      #dark-icon {
        display: inline;
      }
    }
  </style><g id="light-icon"><svg xmlns="http://www.w3.org/2000/svg" version="1.1" xmlns:xlink="http://www.w3.org/1999/xlink" width="1000" height="1000"><g clip-path="url(#SvgjsClipPath1058)"><rect width="1000" height="1000" fill="#000000"></rect><g transform="matrix(7.4766355140186915,0,0,7.4766355140186915,100,417.75700934579436)"><svg xmlns="http://www.w3.org/2000/svg" width="107" height="22" fill="none" viewBox="0 0 107 22"><path fill="#fff" d="M8.141 16.24h14.476l-1.605 5.25H3.82c-2.563 0-4.398-2.479-3.649-4.931L5.08.506h7.872L8.141 16.239Zm25.087-3.024h13.267a9.893 9.893 0 0 1 .026-2.214c.093-.758.268-1.494.52-2.214H34.58l.925-3.023H48.62a15.197 15.197 0 0 1 2.814-2.976l.694-2.274h-22.89L24.33 16.567c-.75 2.453 1.086 4.93 3.649 4.93h17.734l1.605-5.25H32.3l.928-3.03ZM98.572.511l-3.521 11.513c-2.21-3.278-4.42-6.557-6.634-9.831A3.804 3.804 0 0 0 85.258.51h-4.981c-.741 2.427-1.487 4.854-2.227 7.285.217 1.022.268 2.1.132 3.206-.294 2.376-1.405 4.598-3.096 6.493-.409 1.333-.813 2.666-1.222 3.998h7.873l3.56-11.64c2.618 3.878 5.232 7.761 7.85 11.64h6.886c2.137-6.995 4.274-13.99 6.412-20.982h-7.873Zm-22.29 10.487c-.744 6.076-7.587 10.998-15.28 10.998-7.694 0-13.327-4.926-12.582-10.998C49.165 4.926 56.007 0 63.7 0c7.695 0 13.328 4.926 12.583 10.998ZM62.995 5.76c-3.666 0-6.923 2.346-7.28 5.237-.354 2.895 2.328 5.237 5.99 5.237 3.666 0 6.923-2.346 7.28-5.237.359-2.891-2.324-5.237-5.99-5.237Z"></path></svg></g></g><defs><clipPath id="SvgjsClipPath1058"><rect width="1000" height="1000" x="0" y="0" rx="350" ry="350"></rect></clipPath></defs></svg></g><g id="dark-icon"><svg xmlns="http://www.w3.org/2000/svg" version="1.1" xmlns:xlink="http://www.w3.org/1999/xlink" width="1000" height="1000"><g clip-path="url(#SvgjsClipPath1059)"><rect width="1000" height="1000" fill="#000000"></rect><g transform="matrix(7.4766355140186915,0,0,7.4766355140186915,100,417.75700934579436)"><svg xmlns="http://www.w3.org/2000/svg" width="107" height="22" fill="none" viewBox="0 0 107 22"><path fill="#fff" d="M8.141 16.24h14.476l-1.605 5.25H3.82c-2.563 0-4.398-2.479-3.649-4.931L5.08.506h7.872L8.141 16.239Zm25.087-3.024h13.267a9.893 9.893 0 0 1 .026-2.214c.093-.758.268-1.494.52-2.214H34.58l.925-3.023H48.62a15.197 15.197 0 0 1 2.814-2.976l.694-2.274h-22.89L24.33 16.567c-.75 2.453 1.086 4.93 3.649 4.93h17.734l1.605-5.25H32.3l.928-3.03ZM98.572.511l-3.521 11.513c-2.21-3.278-4.42-6.557-6.634-9.831A3.804 3.804 0 0 0 85.258.51h-4.981c-.741 2.427-1.487 4.854-2.227 7.285.217 1.022.268 2.1.132 3.206-.294 2.376-1.405 4.598-3.096 6.493-.409 1.333-.813 2.666-1.222 3.998h7.873l3.56-11.64c2.618 3.878 5.232 7.761 7.85 11.64h6.886c2.137-6.995 4.274-13.99 6.412-20.982h-7.873Zm-22.29 10.487c-.744 6.076-7.587 10.998-15.28 10.998-7.694 0-13.327-4.926-12.582-10.998C49.165 4.926 56.007 0 63.7 0c7.695 0 13.328 4.926 12.583 10.998ZM62.995 5.76c-3.666 0-6.923 2.346-7.28 5.237-.354 2.895 2.328 5.237 5.99 5.237 3.666 0 6.923-2.346 7.28-5.237.359-2.891-2.324-5.237-5.99-5.237Z"></path></svg></g></g><defs><clipPath id="SvgjsClipPath1059"><rect width="1000" height="1000" x="0" y="0" rx="350" ry="350"></rect></clipPath></defs></svg></g></svg>